<?xml version="1.0"?><svg width="640" height="700" xmlns="http://www.w3.org/2000/svg">
 <title>Simple Bottle Outline</title>

 <metadata id="metadata7">image/svg+xmlGreen Bottle16/10/2010SteveGreen Bottle</metadata>
 <g>
  <title>Layer 1</title>
  <g id="layer1">
   <path d="m290.96875,31l-0.75,0.21875c-3.572205,-0.076202 -6.015167,1.14119 -7.28125,3.9375l0,27.71875c-9.38385,12.16452 -8.276154,17.832642 1,22c-4.64798,54.277252 -8.935669,99.473724 -16,161c-57.354523,19.852936 -75.207275,73.752625 -74,123c-3.011398,106.158081 -2.482941,175.971741 -2.9375,258.71875c1.498779,5.689941 3.674438,9.796326 7.59375,12.8125c70.926941,13.680481 149.190186,16.298096 239,1.65625c4.029144,-2.778992 6.305115,-6.313965 7.5625,-11.5c1.993195,-100.115112 -1.738251,-180.230286 -4.21875,-264.6875c-5.694916,-56.558624 -26.716492,-99.70639 -75,-119c-1.883759,-35.620544 -7.728943,-106.89389 -12,-164c14.294006,-7 5.210266,-14 -1,-21l0,-25.125c-1.228363,-2.820251 -3.391754,-4.430588 -6.46875,-4.96875l-55.5,-0.78125z" id="path4028" stroke="#000000" fill="#ffffff" stroke-width="4"/>
   <path d="m284.9375,70.862183c-3.009247,3.074074 -12.985565,4.00444 0,12l66,0.5c13.633362,-6.992859 4.603943,-10.200836 1,-13.5c13.55661,8.036934 -75.483459,11.594818 -67,1z" id="path4050" stroke="#000000" fill="#ffffff" stroke-width="4"/>
   <path id="path4054" d="m291.9375,61.862183c-25.080719,-4.356079 45.969452,-4.193512 52,-13.5c19.699646,4.239212 -3.878448,10.590614 -52,13.5z" stroke="#000000" fill="#ffffff" stroke-width="4"/>
   <path id="path4056" d="m291.9375,49.862183c-25.080719,-4.356079 45.969452,-4.193512 52,-13.5c19.699646,4.239212 -3.878448,10.590622 -52,13.5z" stroke="#000000" fill="#ffffff" stroke-width="4"/>
   <path d="m291.9375,49.862183c-25.080719,-4.356079 45.969452,-4.193512 52,-13.5c19.699646,4.239212 -3.878448,10.590622 -52,13.5z" id="path4052" stroke="#000000" fill="#ffffff" stroke-width="4"/>
   <path d="m347.9375,65.862183c3.852692,-3.782715 7.453857,-0.056503 10,4c-33.12854,1.138901 -26.844971,-0.430115 -50.5,1.5c20.666687,-3.463943 19.833313,-5.315384 40.5,-5.5z" id="path4102" stroke="#000000" fill="#ffffff" opacity="0.463035" stroke-width="4"/>
  </g>
 </g>
</svg>